<svg width="63" height="63" viewBox="0 0 63 63" fill="none" xmlns="http://www.w3.org/2000/svg">
<rect width="63" height="63" rx="31.5" fill="#D9D9D9"/>
<path d="M36.2416 34.7083L35.6342 35.3121C35.6342 35.3121 34.1908 36.7474 30.2508 32.8297C26.3108 28.9121 27.7543 27.4768 27.7543 27.4768L28.1367 27.0966C29.0788 26.1599 29.1676 24.656 28.3456 23.558L26.6643 21.3122C25.647 19.9533 23.6813 19.7738 22.5153 20.9332L20.4225 23.0141C19.8443 23.589 19.4569 24.3342 19.5039 25.1609C19.6241 27.2758 20.5809 31.8263 25.9205 37.1355C31.5828 42.7657 36.8957 42.9894 39.0684 42.7869C39.7556 42.7229 40.3532 42.3729 40.8348 41.8939L42.7289 40.0107C44.0074 38.7394 43.6469 36.5599 42.011 35.6707L39.4637 34.2859C38.3896 33.7021 37.081 33.8735 36.2416 34.7083Z" fill="#696969"/>
</svg>
