<svg width="63" height="63" viewBox="0 0 63 63" fill="none" xmlns="http://www.w3.org/2000/svg">
<rect width="63" height="63" rx="31.5" fill="#D9D9D9"/>
<path d="M30.7625 24.2711H32.1934C32.4514 24.2711 32.6605 24.0613 32.6605 23.804V21.6429C32.6605 21.3851 32.4514 21.1753 32.1934 21.1753H30.7625C30.5045 21.1753 30.2952 21.3851 30.2952 21.6429V23.804C30.2953 24.0613 30.5045 24.2711 30.7625 24.2711Z" fill="#696969"/>
<path d="M29.5845 24.2523C29.6896 24.1445 29.7532 24.0014 29.7816 23.8654C29.811 23.7278 29.8177 23.5888 29.8182 23.4235C29.8182 22.4895 29.8182 21.633 29.8182 21.3989V21.1417C28.9598 20.7211 28.0467 19.7821 27.3605 19.1112C27.0166 18.7767 26.6799 18.4572 26.3222 18.2019C25.9655 17.9475 25.5806 17.7516 25.1462 17.7021C25.0282 17.6893 24.9156 17.6829 24.8081 17.6829C24.4793 17.6829 24.1953 17.7432 23.9578 17.8516C23.6006 18.0119 23.3626 18.28 23.2271 18.5477C23.0905 18.8164 23.0448 19.0826 23.0438 19.2973C23.0448 19.4848 23.001 19.8242 22.8939 20.1988C22.7877 20.5758 22.6185 20.9939 22.3794 21.3659C22.1732 21.687 22.0285 22.0329 22.0276 22.4059C22.0251 22.7166 22.1404 23.0337 22.3662 23.2975C22.5921 23.5637 22.9161 23.7848 23.3496 23.9782C24.6714 24.565 25.934 24.7986 27.0519 24.7986C27.7737 24.7986 28.4357 24.7016 29.0168 24.5403C29.1388 24.5067 29.2479 24.4721 29.355 24.4181C29.4353 24.3775 29.5154 24.3245 29.5845 24.2523ZM23.3072 23.1673C23.1229 23.0575 22.9873 22.9477 22.9012 22.8452C22.7708 22.6879 22.7302 22.5573 22.7282 22.4059C22.7268 22.2258 22.8052 21.9977 22.9687 21.7449C23.255 21.2991 23.4457 20.8212 23.5683 20.3902C23.5931 20.3012 23.6139 20.2161 23.633 20.131C23.7621 20.2586 23.9149 20.371 24.079 20.4769C24.0181 21.4089 23.674 22.3856 23.3072 23.1673ZM24.0572 19.5629C23.7745 19.3234 23.8393 18.9326 23.887 18.8223L23.8796 18.8188C23.9279 18.7367 23.9904 18.6601 24.0731 18.5952C24.222 18.479 24.4402 18.3854 24.8081 18.3844C24.8879 18.3844 24.9748 18.3888 25.0685 18.3988C25.3357 18.428 25.613 18.5566 25.9153 18.7724C26.3673 19.0939 26.8522 19.6025 27.3986 20.126C27.6935 20.4076 28.0092 20.6925 28.354 20.9543C28.0005 20.936 27.5532 20.8851 27.0072 20.7737C26.114 20.5926 25.2817 20.3423 24.7049 20.0365C24.4159 19.8855 24.2168 19.6975 24.0572 19.5629Z" fill="#696969"/>
<path d="M39.6509 23.9782C40.0841 23.7847 40.4082 23.5636 40.6338 23.2974C40.8599 23.0337 40.9752 22.7165 40.9725 22.4058C40.9714 22.0328 40.8267 21.6869 40.6207 21.3659C40.3815 20.9938 40.2125 20.5757 40.1061 20.1987C39.999 19.8242 39.9558 19.4848 39.9562 19.2973C39.9558 19.0826 39.9097 18.8164 39.7729 18.5477C39.6373 18.28 39.3993 18.0118 39.0421 17.8515C38.8049 17.7432 38.5209 17.6829 38.1921 17.6829C38.0842 17.6829 37.9717 17.6893 37.8537 17.7021C37.4198 17.7516 37.0344 17.9475 36.6779 18.2019C36.3202 18.4572 35.9837 18.7767 35.6397 19.1112C34.9534 19.7821 34.0401 20.7211 33.1821 21.1417V21.3989C33.1821 21.633 33.1821 22.4894 33.1821 23.4235C33.1821 23.5888 33.1888 23.7278 33.2185 23.8654C33.2472 24.0014 33.3103 24.1444 33.4155 24.2523C33.4847 24.3245 33.5646 24.3774 33.645 24.418C33.7526 24.472 33.8612 24.5066 33.9837 24.5402C34.5645 24.7015 35.2263 24.7985 35.9484 24.7985C37.0666 24.7985 38.3287 24.565 39.6509 23.9782ZM38.1921 18.3844C38.5597 18.3854 38.7782 18.479 38.9268 18.5952C39.0094 18.6601 39.0723 18.7367 39.1202 18.8188L39.1129 18.8223C39.1606 18.9326 39.2254 19.3235 38.9426 19.5629C38.7833 19.6975 38.5839 19.8855 38.2953 20.0364C37.7181 20.3422 36.886 20.5925 35.9926 20.7736C35.4467 20.885 34.9994 20.936 34.6464 20.9542C34.9909 20.6925 35.3064 20.4075 35.6012 20.1259C36.148 19.6025 36.6326 19.0938 37.0847 18.7723C37.3868 18.5565 37.6644 18.4279 37.9313 18.3987C38.0251 18.3888 38.112 18.3844 38.1921 18.3844Z" fill="#696969"/>
<path d="M33.9078 25.6545H29.092V31.473H33.9078V25.6545Z" fill="#696969"/>
<path d="M28.0888 25.6545H19.5V31.473H28.0888V25.6545Z" fill="#696969"/>
<path d="M43.5 25.6545H34.9108V31.473H43.5V25.6545Z" fill="#696969"/>
<path d="M28.0889 32.2759H20.3027V45.3173H28.0889V32.2759Z" fill="#696969"/>
<path d="M33.9078 32.2759H29.092V45.3173H33.9078V32.2759Z" fill="#696969"/>
<path d="M42.6972 32.2759H34.9108V45.3173H42.6972V32.2759Z" fill="#696969"/>
</svg>
