<svg width="400" height="125" viewBox="0 0 400 125" fill="none"
    xmlns="http://www.w3.org/2000/svg">
    <path d="M83.7786 54.3866C83.7786 56.5894 82.2682 59.4807 81.0325 61.1329C77.1878 66.6401 75.5401 97.4806 80.3459 103.401C83.0921 106.705 83.7786 108.357 83.7786 110.836C83.7786 116.205 76.0893 117.169 67.7135 117.169H66.4777C58.1019 117.169 50.4126 116.205 50.4126 110.836C50.4126 108.357 51.6484 106.017 53.708 103.401C56.5915 99.6835 57.278 88.256 56.4542 77.6546C56.4542 77.6546 44.9202 112.212 35.3086 112.212C30.9147 112.212 28.5805 109.183 28.5805 105.879C28.5805 91.4227 14.3003 74.7633 14.3003 74.7633C13.4765 88.5314 15.5361 105.053 19.3808 109.459C20.4792 110.56 21.3031 111.524 21.4404 112.625C21.8523 115.241 16.6346 117.169 10.7303 117.169C4.27678 117.169 -0.254416 115.241 0.0202019 112.625C0.157511 111.524 1.11867 110.56 2.21714 109.459C8.53336 102.437 9.76914 65.1256 2.07984 57.6909C0.981364 56.5894 0.157511 55.488 0.0202019 54.3866C-0.254416 51.9083 2.21714 48.0532 10.7303 48.0532H21.715C34.6221 48.0532 42.586 71.5966 43.9591 89.4951C53.1588 72.6981 50.4126 56.5894 50.4126 54.3866C50.4126 49.1547 58.1019 48.0532 66.4777 48.0532H67.7135C76.0893 48.0532 83.7786 49.1547 83.7786 54.3866Z" fill="#222222"/>
    <path d="M183.792 73.9496C183.792 89.6807 179.814 102.05 171.857 111.059C163.946 120.067 152.861 124.571 138.603 124.571C124.166 124.571 112.992 120.157 105.08 111.328C97.2136 102.454 93.2803 89.9496 93.2803 73.8151C93.2803 57.8151 97.1913 45.423 105.013 36.6387C112.88 27.8095 124.121 23.395 138.737 23.395C152.951 23.395 164.013 27.8768 171.925 36.8403C179.836 45.7591 183.792 58.1289 183.792 73.9496ZM106.287 73.9496C106.287 86.9468 109.036 96.8515 114.534 103.664C120.031 110.476 128.055 113.882 138.603 113.882C149.107 113.882 157.085 110.521 162.538 103.798C167.991 97.0756 170.718 87.1261 170.718 73.9496C170.718 60.8179 168.014 50.9356 162.605 44.3025C157.197 37.6246 149.241 34.2857 138.737 34.2857C128.099 34.2857 120.031 37.6695 114.534 44.437C109.036 51.1597 106.287 60.9972 106.287 73.9496ZM119.495 6.72269C119.495 4.34734 120.121 2.64426 121.372 1.61345C122.624 0.537815 124.144 0 125.931 0C127.675 0 129.194 0.537815 130.49 1.61345C131.787 2.64426 132.435 4.34734 132.435 6.72269C132.435 9.09804 131.787 10.8459 130.49 11.9664C129.194 13.0868 127.675 13.6471 125.931 13.6471C124.144 13.6471 122.624 13.0868 121.372 11.9664C120.121 10.8459 119.495 9.09804 119.495 6.72269ZM145.308 6.72269C145.308 4.34734 145.933 2.64426 147.185 1.61345C148.436 0.537815 149.911 0 151.61 0C153.353 0 154.873 0.537815 156.169 1.61345C157.465 2.64426 158.113 4.34734 158.113 6.72269C158.113 9.09804 157.465 10.8459 156.169 11.9664C154.873 13.0868 153.353 13.6471 151.61 13.6471C149.911 13.6471 148.436 13.0868 147.185 11.9664C145.933 10.8459 145.308 9.09804 145.308 6.72269Z" fill="#222222"/>
    <path d="M245.997 77.3792C254.373 80.4082 261.513 86.7415 261.513 96.3792C261.513 109.321 247.096 117.169 235.287 117.169H208.237C199.862 117.169 192.172 116.205 192.172 110.836C192.172 108.357 193.957 105.328 195.468 103.401C200.411 97.4806 198.763 66.6401 194.918 61.1329C193.683 59.4807 192.172 56.5894 192.172 54.3866C192.172 49.1547 199.862 48.0532 208.237 48.0532H230.756C242.015 48.0532 254.373 53.4228 254.373 64.5749C254.373 70.7706 250.803 74.901 245.997 77.3792ZM236.111 109.046C243.114 103.126 240.78 75.8647 218.398 82.4734C218.398 96.9299 222.243 111.111 229.795 111.111C232.266 111.111 233.914 110.836 236.111 109.046ZM229.795 53.4228C223.204 53.4228 219.497 63.7488 218.673 75.8647C230.344 75.8647 239.407 59.0677 232.816 54.3866C231.992 53.6982 230.893 53.4228 229.795 53.4228Z" fill="#222222"/>
    <path d="M300.739 54.6619C294.285 54.6619 290.578 64.7126 289.479 76.2778H293.324C302.661 76.2778 302.661 69.1184 305.956 68.7053C308.565 68.43 310.487 74.4879 310.487 79.4444C310.487 84.5386 308.565 90.5966 305.956 90.1835C302.661 89.7705 302.661 82.7488 293.324 82.7488H289.205C289.205 96.6545 293.049 110.698 300.739 110.698C305.544 110.698 310.35 107.944 313.096 101.336C316.117 93.7632 330.809 96.3792 330.809 103.263C330.809 110.423 321.609 117.169 313.783 117.169H278.769C270.393 117.169 262.704 116.205 262.704 110.836C262.704 108.357 264.489 105.328 265.999 103.401C270.943 97.4806 269.295 66.6401 265.45 61.1329C264.214 59.4807 262.704 56.5894 262.704 54.3866C262.704 49.1547 270.393 48.0532 278.769 48.0532H313.783C321.609 48.0532 330.809 54.7996 330.809 62.0967C330.809 68.843 316.117 71.5966 313.096 64.0242C310.35 57.4155 305.544 54.6619 300.739 54.6619Z" fill="#222222"/>
    <path d="M382.287 101.336C385.308 93.7632 400 96.3792 400 103.263C400 110.423 390.938 117.169 382.974 117.169H347.96C339.584 117.169 331.895 116.205 331.895 110.836C331.895 108.357 333.68 105.328 335.19 103.401C340.133 97.4806 338.486 66.6401 334.641 61.1329C333.405 59.4807 331.895 56.5894 331.895 54.3866C331.895 49.1547 339.584 48.0532 347.96 48.0532H349.196C357.572 48.0532 365.261 49.1547 365.261 54.3866C365.261 56.5894 363.75 59.4807 362.515 61.1329C358.807 66.6401 353.864 110.698 371.028 110.698C375.834 110.698 379.678 107.944 382.287 101.336Z" fill="#222222"/>
</svg>