<svg width="25" height="25" viewBox="0 0 25 25" fill="none"
    xmlns="http://www.w3.org/2000/svg">
    <g clip-path="url(#clip0_161_7280)">
        <path d="M8.96912 6.73999C10.2891 6.73999 11.3691 7.80799 11.3691 9.13999C11.3691 9.58399 11.2371 9.99199 11.0331 10.34C11.0331 10.34 10.1691 10.1 8.96912 10.1C7.76912 10.1 6.90512 10.34 6.90512 10.34C6.70112 9.99199 6.56912 9.58399 6.56912 9.13999C6.56912 7.80799 7.64912 6.73999 8.96912 6.73999ZM16.1691 6.73999C17.5011 6.73999 18.5691 7.80799 18.5691 9.13999C18.5691 9.58399 18.4371 9.99199 18.2331 10.34C18.2331 10.34 17.3691 10.1 16.1691 10.1C14.9691 10.1 14.1051 10.34 14.1051 10.34C13.9011 9.99199 13.7691 9.58399 13.7691 9.13999C13.7691 7.80799 14.8371 6.73999 16.1691 6.73999ZM12.5691 23.18C17.0331 23.18 21.0051 20.348 22.4451 16.124L20.8611 15.572C19.6491 19.124 16.3131 21.5 12.5691 21.5C8.82512 21.5 5.48912 19.124 4.27712 15.572L2.69312 16.124C4.13312 20.348 8.10511 23.18 12.5691 23.18Z" fill="white"/>
    </g>
    <defs>
        <clipPath id="clip0_161_7280">
            <rect width="24" height="24" fill="white" transform="translate(0.569122 0.5)"/>
        </clipPath>
    </defs>
</svg>