<svg width="63" height="63" viewBox="0 0 63 63" fill="none" xmlns="http://www.w3.org/2000/svg">
<rect width="63" height="63" rx="31.5" fill="#D9D9D9"/>
<path d="M16.4744 23.7444L13.9197 31.0114C13.6653 31.6238 13.5 32.6163 13.5 33.0887C13.5 33.561 13.5 35.9543 13.5 35.9543C13.5 36.7319 14.129 37.3704 14.8997 37.3704H16.5753C16.7438 39.1274 18.2069 40.5 19.9877 40.5C21.7684 40.5 23.2325 39.1274 23.4011 37.3704H26.5V22.5H18.5418C17.7722 22.5 16.8415 23.0604 16.4744 23.7444ZM19.9877 38.7647C19.0409 38.7647 18.2724 37.9872 18.2724 37.0294C18.2724 36.0717 19.0409 35.2963 19.9877 35.2963C20.9355 35.2963 21.703 36.0716 21.703 37.0294C21.703 37.9872 20.9354 38.7647 19.9877 38.7647ZM24.8899 24.3461V29.8723H16.7202L18.326 24.8956C18.4666 24.6328 18.9443 24.3461 19.2384 24.3461L24.8899 24.3461Z" fill="#696969"/>
<path d="M29.5 21.5V38.3455H39.5005C39.6652 40.1165 41.114 41.5 42.8761 41.5C44.6394 41.5 46.0861 40.1165 46.255 38.3455H49.5V21.5H29.5ZM42.8762 39.7509C41.9394 39.7509 41.1788 38.9671 41.1788 38.0017C41.1788 37.0363 41.9394 36.2547 42.8762 36.2547C43.8141 36.2547 44.5736 37.0363 44.5736 38.0017C44.5736 38.9672 43.8141 39.7509 42.8762 39.7509Z" fill="#696969"/>
</svg>
